<?xml version="1.0" encoding="UTF-8"?><svg id="Layer_1" xmlns="http://www.w3.org/2000/svg" viewBox="0 0 50 50"><defs><style>.cls-1{fill:#f2f2f7;}.cls-2{fill:#ff3c2f;}.cls-3{fill:#d1d1d6;}.cls-4{fill:#231f20;}.cls-5{fill:#222125;}.cls-6{fill:#5a575c;}</style></defs><path class="cls-4" d="M45.8,28.32c-.39-2.22-1.15-3.89-1.88-5.5-.52-1.15-1.06-2.34-1.46-3.72-.11-.39-.23-.84-.36-1.32-.28-1.06-.6-2.25-.98-3.39h0c-.19-.6,0-1.89,.16-3.03,.12-.84,.23-1.63,.21-2.19-.02-.52-.17-.89-.45-1.15-.46-.42-1.13-.38-1.9-.34l-.33,.02c-.4,.02-.72,.18-.94,.48-.28,.38-.31,.92-.28,1.37-.53-.11-1.08-.02-1.65,.25-3.05,1.48-3.3,3.04-3.44,3.87,0,.06-.02,.14-.03,.19h-.03c-.22-.06-.68-.48-.72-.63,0-.28-.17-.55-.49-.79,.56-.92,.98-1.61,1.18-1.92,.13-.2,.28-.4,.43-.6,.5-.68,.97-1.31,.5-1.76-.55-.52-1.13-.85-1.76-1.01-.69-.17-1.25,.73-1.86,1.68l-.13,.2s-.71,1.06-1.76,2.62c-1.33,.1-2.44,.65-3.13,1.62-.1,.14-9.92,14.02-12.39,15.67-4.08,2.72-6.14,5.48-6.13,8.22,0,4.13,5.28,6.34,15.68,6.55,.21,0,.41,0,.62,0,6.62,0,11.01-2.29,12.73-6.65q.89-2.28,2.42-2.2h.2c1.55,.09,5.1-1.14,6.88-3.16,.93-1.06,1.29-2.19,1.08-3.38Zm-4.2-9.05c-.02,.44-.22,3.23-2.91,4.69-1.02,.55-1.6,1-2.12,1.56,.69-1.43,1.43-2.98,1.97-4.13,.38-.82,.38-1.46,0-1.9-.62-.71-2.06-.52-2.97-.31,.12-.71,.12-1.42,.09-1.94,.45,.16,.92,.26,1.38,.26,.2,0,.41-.02,.61-.06,1.13-.22,2.05-1.08,2.74-2.52,.34,1.06,.63,2.14,.87,3.06,.12,.46,.24,.89,.34,1.27Zm-3.01-10.59c.04-.06,.1-.11,.27-.12l.34-.02c.55-.03,1.07-.06,1.27,.11,.1,.09,.15,.27,.16,.54,.02,.48-.09,1.23-.2,2.03-.05,.35-.1,.7-.14,1.04-.48-.99-1.05-1.82-1.73-2.3-.1-.43-.14-1.03,.04-1.28Zm-5.21,5.12c.12-.73,.32-1.94,2.96-3.23,.52-.25,.98-.27,1.41-.07,.9,.41,1.62,1.69,2.2,3.2-.61,1.71-1.44,2.7-2.47,2.9-1.64,.32-3.48-1.27-4.33-2.11,.15-.18,.19-.43,.23-.68Zm-2.52-.57c0,.58,.74,1.2,1.22,1.41,.28,.32,1.32,1.44,2.66,2.19,.11,.95,.14,2.99-.73,3.79-.37,.34-.88,.42-1.56,.26-.23-.05-.43-.08-.64-.11,.76-1.23,.92-2.31,.46-3.23-.6-1.2-2.14-1.74-2.98-1.89,.54-.9,1.05-1.74,1.49-2.47,.04,.03,.06,.05,.07,.05Zm-14.54,12.69c.06,.03,.13,.05,.2,.05h.03c.49-.04,1.04-.08,1.61-.13-1.25,1.81-2.33,3.33-3.02,4.26-.02-.01-.03-.02-.05-.04,0,0-.75-.72-.79-1.81,.59-.64,1.28-1.44,2.01-2.33Zm2.88-3.67l.55,1.28c-.33,.47-.65,.94-.96,1.39-.61,.05-1.22,.1-1.79,.14,.71-.89,1.45-1.85,2.19-2.81Zm4.52-6.1l.42,.97c-.33,.49-.67,.99-1.01,1.49-.43,.03-.86,.07-1.27,.1,.69-.94,1.33-1.81,1.86-2.55Zm1.78,4.14c-.88,1.46-1.76,2.93-2.59,4.31-.52,.04-1.08,.09-1.68,.14l-.47-1.1c.93-1.36,1.91-2.78,2.86-4.19,.49-.04,.99-.08,1.48-.12l.41,.96Zm.51-1.03h.12l-.07,.11-.05-.11Zm-3.66,6.26c-.16,.26-.31,.51-.46,.76l-.3-.7c.26-.02,.51-.04,.76-.06Zm-2.05-.71c-.13,.01-.25,.02-.38,.03,.08-.12,.16-.23,.24-.35l.14,.32Zm3.94-6.29c.1-.15,.2-.3,.31-.45l.18,.41c-.16,.01-.32,.03-.48,.04Zm-3.07,1.12c.41-.03,.86-.07,1.32-.1-.72,1.06-1.45,2.12-2.15,3.15l-.53-1.23c.46-.61,.92-1.22,1.36-1.82Zm-1.89,6.13c.46-.04,.93-.07,1.39-.11l.66,1.54c-1.25,2.04-2.23,3.61-2.69,4.27-1.03,.01-1.97-.26-2.81-.82,.77-1.04,2.01-2.8,3.45-4.89Zm2.47,2.41l.45,1.04c.07,.17,.23,.26,.4,.26,.06,0,.12-.01,.17-.04,.22-.1,.32-.35,.23-.57l-.69-1.61c.36-.58,.73-1.19,1.11-1.83,1.15-.1,1.96-.17,2.04-.2,.22-.06,.36-.29,.31-.51-.05-.23-.28-.38-.51-.34-.09,.02-.58,.06-1.28,.12,.63-1.05,1.29-2.14,1.95-3.23l.5,1.15c.07,.17,.23,.26,.4,.26,.06,0,.12-.01,.17-.04,.22-.1,.32-.35,.23-.57l-.75-1.73c.24-.4,.48-.8,.72-1.2,1.48-.12,2.58-.22,2.69-.25,.22-.06,.35-.29,.3-.51-.05-.23-.28-.38-.51-.33-.12,.02-.87,.09-1.93,.18l.31-.52c.28-.47,.56-.93,.83-1.38v.15c.3,.03,2.03,.35,2.59,1.41,.38,.71,.17,1.65-.64,2.79l.04,.03c-.57,.02-1.06,.14-1.45,.4-1.01,.66-1.25,1.96-1.48,3.22-.04,.23-.09,.46-.13,.7-.25,1.19-3.62,4.97-7.24,6.12-.28,.09-.55,.16-.81,.21,.48-.74,1.17-1.85,1.99-3.18ZM30.33,9.51l.13-.21c.25-.4,.79-1.22,.92-1.31,.45,.11,.85,.33,1.25,.69-.09,.18-.32,.49-.49,.71-.16,.21-.32,.43-.46,.65-.51,.78-2.3,3.77-4.37,7.22-.21,.35-.42,.7-.63,1.06-.33,.03-.68,.06-1.04,.08l-.52-1.2c2.82-4.16,5.15-7.62,5.2-7.7Zm-4.91,4.26c.48-.67,1.13-1.01,1.77-1.17-.72,1.07-1.57,2.32-2.48,3.66l-.4-.94c.63-.87,1.03-1.45,1.11-1.56Zm-11.88,15.27c.27,1.03,.92,1.65,.95,1.68,1.16,1.08,2.54,1.63,4.07,1.63,.73,0,1.49-.12,2.28-.37,3.91-1.24,7.52-5.24,7.84-6.78,.05-.24,.09-.48,.14-.71,.21-1.13,.41-2.2,1.1-2.65,.5-.32,1.26-.36,2.34-.1,.96,.23,1.76,.07,2.35-.47,.32-.29,.54-.68,.7-1.1,.95-.27,2.26-.44,2.58-.09,.13,.14,.08,.49-.14,.95-1.26,2.7-3.64,7.58-3.86,8.03-.88,1.14-2.09,2.62-3.87,4.6-.95,1.06-1.96,1.87-2.98,2.53-.44,0-.99-.08-1.1-.28-.05-.09-.01-.32,.25-.7,.94-1.35,.82-2.83,.11-3.37-.36-.27-.97-.36-1.52,.31-.93,1.11-6.8,3.86-10.68,1.34-1.24-.81-1.91-1.64-1.95-2.42-.04-.85,.68-1.42,.69-1.43h0c.2-.14,.44-.34,.71-.6Zm-2.25,1.71c-.01,.11-.02,.22-.02,.34,.04,1.09,.84,2.15,2.35,3.13,4.35,2.83,10.76-.24,11.83-1.51,.06-.08,.23-.25,.32-.17,.27,.21,.41,1.16-.3,2.17-.45,.64-.55,1.19-.3,1.63,.15,.26,.41,.42,.68,.52-4.93,2.49-9.96,1.29-11.03,.98-.12-.49-.34-.95-.75-1.28-1.1-.89-3.35-1.29-4.55-1.04-1.39,.29-2.05,1.45-2.32,2.55-.08-.29-.14-.59-.14-.92,0-2.05,1.46-4.24,4.23-6.4Zm10.6,12.08c-5.45-.11-11.74-.86-13.98-3.47,.01-.61,.19-2.65,1.8-2.99,1.06-.22,3.02,.22,3.82,.86,.63,.51,.57,1.65,.52,2.57,0,.18-.02,.35-.02,.5,0,.14,.04,.35,.28,.54,.8,.66,4.4,1.13,7.87,1.13,1.8,0,3.57-.13,4.89-.43,1.9-.43,3.07-1.18,3.92-1.72,.94-.6,1.25-.76,1.71-.36-2.19,2.33-5.81,3.46-10.8,3.36Zm22.16-11.71c-1.66,1.89-4.97,2.95-6.18,2.87h-.2c-2.09-.11-2.24,.13-3.27,2.75-.3,.76-.71,1.43-1.18,2.05-.97-.79-1.78-.27-2.71,.31-.8,.51-1.89,1.21-3.65,1.61-3.96,.9-11.07,.11-11.96-.49,0-.11,.01-.24,.02-.36,.02-.33,.03-.7,.02-1.08,.8,.2,2.32,.51,4.23,.51,3.34,0,7.82-.94,11.49-5.04,3.03-3.38,4.43-5.32,5.36-6.6,1.09-1.51,1.45-2.02,3.08-2.91,1.86-1.01,2.69-2.57,3.06-3.77,.3,.78,.62,1.51,.95,2.21,.74,1.64,1.44,3.18,1.82,5.29,.16,.91-.13,1.8-.88,2.65Z"/><g><path class="cls-6" d="M15.09,30.08s-.75-.72-.79-1.82c.6-.64,1.28-1.43,2.01-2.34,.06,.04,.13,.06,.2,.06h.04c.49-.04,1.03-.08,1.6-.13-1.25,1.81-2.33,3.33-3.01,4.27-.02-.02-.03-.03-.05-.04Z"/><path class="cls-6" d="M18.8,24.93c-.62,.05-1.22,.09-1.79,.14,.72-.9,1.45-1.85,2.19-2.81l.56,1.28c-.33,.48-.65,.94-.95,1.39Z"/><path class="cls-2" d="M20.16,24.49l.14,.32c-.13,0-.25,.02-.38,.03,.08-.12,.16-.23,.24-.35Z"/><path class="cls-2" d="M19.28,25.76c.47-.03,.93-.07,1.39-.11l.67,1.54c-1.25,2.04-2.24,3.61-2.7,4.28-1.02,0-1.97-.26-2.81-.83,.78-1.03,2.02-2.8,3.45-4.88Z"/><path class="cls-6" d="M20.34,22.69l-.53-1.23c.46-.62,.91-1.22,1.35-1.82,.42-.03,.87-.07,1.32-.1-.72,1.05-1.44,2.12-2.15,3.15Z"/><path class="cls-2" d="M21.89,26.28l-.31-.7c.27-.02,.52-.04,.77-.06-.16,.25-.31,.51-.46,.76Z"/><path class="cls-6" d="M23.13,18.61c-.44,.03-.86,.06-1.27,.1,.7-.94,1.33-1.81,1.87-2.56l.42,.96c-.34,.49-.68,.98-1.01,1.49Z"/><path class="cls-2" d="M24.73,18.48c-.17,0-.33,.03-.49,.04,.1-.15,.21-.3,.31-.45l.18,.41Z"/><path class="cls-2" d="M22.91,24.6c-.52,.04-1.08,.09-1.68,.13l-.48-1.09c.93-1.36,1.91-2.78,2.86-4.19,.49-.04,.98-.08,1.47-.12l.42,.96c-.88,1.46-1.76,2.92-2.6,4.31Z"/><path class="cls-6" d="M24.72,16.27l-.4-.93c.63-.88,1.02-1.45,1.1-1.56,.49-.67,1.13-1,1.77-1.16-.73,1.07-1.57,2.33-2.48,3.66Z"/><path class="cls-1" d="M7.21,38.07c-.09-.29-.14-.59-.14-.92,0-2.05,1.45-4.24,4.23-6.4,0,.11-.03,.22-.02,.34,.04,1.09,.84,2.15,2.35,3.13,4.36,2.83,10.76-.24,11.83-1.51,.06-.08,.23-.25,.32-.18,.27,.21,.41,1.16-.3,2.18-.45,.64-.55,1.18-.3,1.62,.15,.27,.41,.42,.69,.53-4.93,2.5-9.96,1.28-11.03,.98-.12-.5-.34-.95-.76-1.28-1.09-.9-3.34-1.29-4.55-1.04-1.38,.29-2.05,1.45-2.32,2.55Z"/><path class="cls-2" d="M26.13,19.25s-.05,.08-.07,.12l-.05-.11s.08,0,.12,0Z"/><path class="cls-6" d="M30.84,20.68l.05,.03c-.58,.02-1.06,.14-1.45,.4-1,.66-1.25,1.96-1.48,3.22-.04,.23-.09,.46-.14,.7-.24,1.18-3.61,4.96-7.24,6.12-.28,.09-.55,.16-.82,.21,.48-.74,1.17-1.85,1.99-3.18l.45,1.04c.07,.17,.24,.27,.41,.27,.05,0,.11,0,.17-.04,.22-.1,.33-.35,.23-.58l-.7-1.61c.36-.58,.73-1.18,1.11-1.82,1.14-.1,1.96-.18,2.05-.2,.22-.06,.35-.29,.3-.52s-.27-.38-.51-.33c-.09,0-.58,.06-1.28,.12,.64-1.05,1.29-2.14,1.95-3.23l.5,1.15c.07,.17,.23,.27,.4,.27,.06,0,.12,0,.18-.04,.22-.09,.32-.35,.23-.58l-.75-1.73c.24-.4,.48-.8,.72-1.19,1.47-.12,2.58-.22,2.69-.25,.23-.06,.36-.29,.31-.52s-.29-.38-.51-.33c-.12,.02-.88,.08-1.94,.17,.11-.17,.21-.35,.32-.52,.28-.47,.56-.93,.83-1.38v.15c.3,.03,2.03,.36,2.59,1.41,.38,.71,.17,1.64-.64,2.78Z"/><path class="cls-2" d="M25.13,17.21c2.82-4.16,5.15-7.62,5.2-7.7l.14-.21c.25-.4,.79-1.21,.91-1.3,.45,.11,.85,.33,1.25,.69-.09,.18-.32,.49-.49,.71-.16,.22-.32,.44-.46,.66-.51,.78-2.3,3.76-4.38,7.22-.21,.35-.42,.7-.63,1.05-.34,.03-.69,.06-1.04,.09l-.52-1.2Z"/><path class="cls-5" d="M32.69,39.48c-2.19,2.33-5.8,3.45-10.8,3.35-5.45-.11-11.75-.86-13.97-3.47,0-.61,.18-2.65,1.79-2.98,1.06-.22,3.02,.23,3.82,.87,.64,.51,.58,1.65,.53,2.57,0,.18-.02,.35-.02,.51,0,.14,.04,.35,.28,.54,.8,.66,4.4,1.13,7.87,1.13,1.81,0,3.57-.13,4.88-.43,1.91-.43,3.07-1.17,3.93-1.72,.93-.6,1.24-.77,1.7-.36Z"/><path class="cls-1" d="M31.82,20.77c.77-1.22,.92-2.31,.47-3.22-.6-1.2-2.14-1.74-2.98-1.89,.55-.91,1.04-1.74,1.49-2.47,.03,.03,.05,.05,.07,.04,0,.58,.74,1.2,1.22,1.41,.28,.32,1.32,1.44,2.66,2.19,.1,.94,.14,2.99-.73,3.79-.37,.34-.89,.43-1.56,.26-.22-.05-.43-.08-.64-.11Z"/><path class="cls-1" d="M12.16,31.08c-.04-.86,.68-1.43,.69-1.43,.2-.14,.44-.35,.71-.6,.27,1.02,.91,1.64,.94,1.67,1.16,1.08,2.55,1.63,4.08,1.63,.73,0,1.48-.12,2.28-.37,3.9-1.24,7.52-5.24,7.83-6.78,.05-.24,.1-.48,.14-.71,.21-1.13,.41-2.2,1.1-2.66,.5-.32,1.26-.36,2.34-.1,.96,.23,1.76,.07,2.35-.48,.32-.29,.54-.67,.71-1.09,.95-.27,2.26-.44,2.58-.08,.12,.14,.07,.49-.14,.94-1.26,2.7-3.64,7.58-3.86,8.03-.89,1.14-2.09,2.62-3.87,4.6-.95,1.05-1.96,1.87-2.98,2.53-.44,0-.98-.08-1.09-.28-.05-.09,0-.32,.25-.7,.94-1.35,.82-2.83,.12-3.37-.36-.27-.97-.35-1.52,.31-.94,1.11-6.8,3.86-10.68,1.34-1.24-.81-1.92-1.64-1.95-2.42Z"/><path class="cls-6" d="M33.14,14.5c.15-.19,.2-.43,.24-.69,.12-.73,.32-1.95,2.95-3.23,.52-.25,.98-.27,1.41-.07,.9,.41,1.62,1.69,2.2,3.19-.61,1.72-1.43,2.7-2.47,2.9-1.64,.32-3.48-1.27-4.34-2.11Z"/><path class="cls-2" d="M38.54,9.97c-.09-.43-.14-1.03,.05-1.28,.04-.06,.1-.12,.26-.12l.34-.02c.56-.03,1.07-.06,1.27,.11,.09,.09,.15,.27,.16,.54,.02,.48-.09,1.23-.2,2.03-.05,.35-.1,.7-.14,1.04-.49-.99-1.05-1.82-1.74-2.3Z"/><path class="cls-2" d="M40.38,14.93c.35,1.06,.64,2.15,.88,3.07,.12,.46,.24,.89,.35,1.27-.02,.44-.23,3.22-2.91,4.68-1.01,.56-1.6,1-2.12,1.56,.69-1.43,1.43-2.97,1.97-4.13,.38-.82,.38-1.46,0-1.89-.63-.71-2.07-.52-2.97-.31,.12-.72,.11-1.42,.08-1.94,.46,.16,.92,.26,1.39,.26,.2,0,.4-.02,.61-.06,1.13-.22,2.05-1.07,2.74-2.53Z"/><path class="cls-3" d="M44.06,31.12c-1.66,1.89-4.97,2.95-6.19,2.87h-.19c-2.09-.11-2.25,.13-3.28,2.75-.3,.76-.71,1.42-1.17,2.04-.97-.79-1.79-.27-2.71,.32-.81,.51-1.9,1.2-3.65,1.6-3.96,.91-11.07,.11-11.96-.49,0-.11,0-.24,.02-.36,.02-.33,.03-.71,.02-1.08,.81,.21,2.32,.51,4.23,.51,3.34,0,7.82-.93,11.5-5.03,3.03-3.38,4.43-5.32,5.35-6.6,1.09-1.51,1.46-2.02,3.08-2.9,1.86-1.01,2.7-2.58,3.06-3.78,.3,.78,.63,1.51,.94,2.22,.75,1.63,1.44,3.18,1.82,5.29,.16,.92-.14,1.8-.88,2.65Z"/></g></svg>